<?xml version="1.0"?>
<svg xmlns="http://www.w3.org/2000/svg" height="512px" viewBox="0 -44 443.73333 443" width="512px" class=""><g><path d="m225.28125 252.953125c49.011719 0 88.746094-39.738281 88.746094-88.746094 0-49.015625-39.734375-88.746093-88.746094-88.746093-49.015625 0-88.746094 39.730468-88.746094 88.746093 0 49.007813 39.730469 88.746094 88.746094 88.746094zm0 27.308594c-64.09375 0-116.054688-51.960938-116.054688-116.054688 0-64.097656 51.960938-116.054687 116.054688-116.054687s116.050781 51.957031 116.050781 116.054687c0 64.09375-51.957031 116.054688-116.050781 116.054688zm0 0" fill="#5c9eff" data-original="#5C9EFF" class="" style="fill:#1C232B" data-old_color="#1c232b"/><path d="m225.28125 287.085938c-67.753906 0-122.882812-55.121094-122.882812-122.878907 0-67.757812 55.128906-122.878906 122.882812-122.878906 67.75 0 122.878906 55.121094 122.878906 122.878906 0 67.757813-55.128906 122.878907-122.878906 122.878907zm0-232.105469c-60.226562 0-109.226562 49-109.226562 109.226562 0 60.226563 49 109.226563 109.226562 109.226563s109.226562-49 109.226562-109.226563c0-60.226562-49-109.226562-109.226562-109.226562zm0 204.800781c-52.703125 0-95.574219-42.875-95.574219-95.574219s42.871094-95.574219 95.574219-95.574219c52.699219 0 95.570312 42.875 95.570312 95.574219s-42.871093 95.574219-95.570312 95.574219zm0-177.496094c-45.175781 0-81.921875 36.75-81.921875 81.921875s36.746094 81.917969 81.921875 81.917969c45.171875 0 81.917969-36.746094 81.917969-81.917969s-36.746094-81.921875-81.917969-81.921875zm0 0" fill="#0e65e5" data-original="#0E65E5" class="" style="fill:#E62281" data-old_color="#e62281"/><path d="m225.183594 48.152344h-177.300782c-7.59375 0-13.75 6.109375-13.75 13.65625 0 7.535156 6.15625 13.652344 13.75 13.652344h177.300782" fill="#5c9eff" data-original="#5C9EFF" class="" style="fill:#1C232B" data-old_color="#1c232b"/><path d="m225.1875 82.285156h-177.308594c-11.347656 0-20.570312-9.183594-20.570312-20.476562 0-11.296875 9.222656-20.480469 20.570312-20.480469h177.308594c3.773438 0 6.828125 3.054687 6.828125 6.824219 0 3.769531-3.054687 6.828125-6.828125 6.828125h-177.308594c-3.8125 0-6.917968 3.0625-6.917968 6.828125 0 3.761718 3.105468 6.824218 6.917968 6.824218h177.308594c3.773438 0 6.828125 3.058594 6.828125 6.828126 0 3.769531-3.054687 6.824218-6.828125 6.824218zm0 0" fill="#0e65e5" data-original="#0E65E5" class="" style="fill:#E62281" data-old_color="#e62281"/><path d="m232.203125 280.261719h177.300781c7.589844 0 13.746094-6.117188 13.746094-13.65625 0-7.542969-6.15625-13.652344-13.746094-13.652344h-177.300781" fill="#5c9eff" data-original="#5C9EFF" class="" style="fill:#1C232B" data-old_color="#1c232b"/><path d="m409.507812 287.085938h-177.308593c-3.773438 0-6.824219-3.054688-6.824219-6.824219 0-3.773438 3.050781-6.828125 6.824219-6.828125h177.308593c3.8125 0 6.921876-3.0625 6.921876-6.828125 0-3.761719-3.109376-6.824219-6.921876-6.824219h-177.308593c-3.773438 0-6.824219-3.058594-6.824219-6.828125s3.050781-6.828125 6.824219-6.828125h177.308593c11.347657 0 20.574219 9.1875 20.574219 20.480469s-9.226562 20.480469-20.574219 20.480469zm0 0" fill="#0e65e5" data-original="#0E65E5" class="" style="fill:#E62281" data-old_color="#e62281"/><path d="m12.035156 67.660156c-6.910156-3.238281-6.980468-8.460937 0-11.726562l57.371094-33.914063c6.910156-3.234375 12.515625.457031 12.515625 8.125v63.304688c0 7.722656-5.535156 11.386719-12.515625 8.121093zm0 0" fill="#94c1ff" fill-rule="evenodd" data-original="#94C1FF" class="active-path" style="fill:#1C232B" data-old_color="#1c232b"/><path d="m74.285156 109.582031c-2.519531 0-5.160156-.605469-7.773437-1.824219l-57.691407-34.066406c-7.953124-3.867187-8.820312-9.597656-8.820312-11.902344 0-2.335937.894531-8.179687 9.140625-12.039062l56.792969-33.605469c5.992187-2.839843 11.589844-2.707031 15.917968.042969 4.382813 2.789062 6.894532 7.875 6.894532 13.957031v63.304688c0 6.109375-2.5 11.207031-6.867188 13.984375-2.253906 1.433594-4.84375 2.148437-7.59375 2.148437zm-58.757812-47.785156 57.351562 33.898437c.792969.328126 1.546875.269532 1.6875.210938.085938-.085938.527344-.792969.527344-2.457031v-63.304688c0-1.660156-.453125-2.351562-.566406-2.433593-.125-.058594-.875-.140626-2.226563.492187zm0 0" fill="#0e65e5" data-original="#0E65E5" class="" style="fill:#E62281" data-old_color="#e62281"/><path d="m431.699219 272.464844c6.910156-3.242188 6.980469-8.460938 0-11.734375l-57.371094-33.90625c-6.910156-3.242188-12.515625.453125-12.515625 8.117187v63.304688c0 7.726562 5.535156 11.394531 12.515625 8.125zm0 0" fill="#94c1ff" fill-rule="evenodd" data-original="#94C1FF" class="active-path" style="fill:#1C232B" data-old_color="#1c232b"/><g fill="#0e65e5"><path d="m369.285156 314.34375c-2.726562 0-5.238281-.714844-7.425781-2.105469-4.367187-2.777343-6.871094-7.875-6.871094-13.988281v-63.308594c0-6.078125 2.511719-11.167968 6.890625-13.949218 4.347656-2.757813 9.941406-2.882813 15.347656-.347657l57.945313 34.210938c7.667969 3.5625 8.5625 9.402343 8.5625 11.734375 0 2.304687-.867187 8.03125-8.8125 11.90625l-57.121094 33.753906c-2.972656 1.40625-5.847656 2.09375-8.515625 2.09375zm.375-81.886719c-.238281 0-.40625.03125-.460937.054688-.105469.082031-.558594.773437-.558594 2.429687v63.304688c0 1.664062.441406 2.378906.550781 2.476562.128906.039063.863282.105469 2.242188-.535156l56.792968-33.601562c.003907-.003907.003907-.007813.011719-.007813l-57.386719-33.878906c-.445312-.191407-.878906-.242188-1.191406-.242188zm0 0" data-original="#000000" class="" style="fill:#E62281" data-old_color="#e62281"/><path d="m341.332031 41.328125c-3.773437 0-6.824219-3.058594-6.824219-6.828125v-27.308594c0-3.769531 3.050782-6.824218 6.824219-6.824218 3.773438 0 6.828125 3.054687 6.828125 6.824218v27.308594c0 3.769531-3.054687 6.828125-6.828125 6.828125zm0 0" data-original="#000000" class="" style="fill:#E62281" data-old_color="#e62281"/><path d="m354.988281 27.671875h-27.308593c-3.773438 0-6.828126-3.054687-6.828126-6.824219 0-3.769531 3.054688-6.828125 6.828126-6.828125h27.308593c3.773438 0 6.824219 3.058594 6.824219 6.828125 0 3.769532-3.050781 6.824219-6.824219 6.824219zm0 0" data-original="#000000" class="" style="fill:#E62281" data-old_color="#e62281"/><path d="m218.453125 355.351562c-3.773437 0-6.828125-3.054687-6.828125-6.824218v-27.308594c0-3.769531 3.054688-6.824219 6.828125-6.824219s6.828125 3.054688 6.828125 6.824219v27.308594c0 3.769531-3.054688 6.824218-6.828125 6.824218zm0 0" data-original="#000000" class="" style="fill:#E62281" data-old_color="#e62281"/><path d="m232.105469 341.699219h-27.304688c-3.773437 0-6.828125-3.054688-6.828125-6.824219 0-3.773438 3.054688-6.828125 6.828125-6.828125h27.304688c3.773437 0 6.828125 3.054687 6.828125 6.828125 0 3.769531-3.054688 6.824219-6.828125 6.824219zm0 0" data-original="#000000" class="" style="fill:#E62281" data-old_color="#e62281"/><path d="m68.265625 205.167969c-3.773437 0-6.824219-3.058594-6.824219-6.828125v-27.304688c0-3.773437 3.050782-6.828125 6.824219-6.828125s6.828125 3.054688 6.828125 6.828125v27.304688c0 3.769531-3.054688 6.828125-6.828125 6.828125zm0 0" data-original="#000000" class="" style="fill:#E62281" data-old_color="#e62281"/><path d="m81.921875 191.511719h-27.308594c-3.773437 0-6.828125-3.054688-6.828125-6.824219s3.054688-6.828125 6.828125-6.828125h27.308594c3.773437 0 6.824219 3.058594 6.824219 6.828125s-3.050782 6.824219-6.824219 6.824219zm0 0" data-original="#000000" class="" style="fill:#E62281" data-old_color="#e62281"/></g></g> </svg>
