<svg id="Capa_1" enable-background="new 0 0 512 512" height="512" viewBox="0 0 512 512" width="512" xmlns="http://www.w3.org/2000/svg"><path d="m512 256c0 130.72-97.98 238.56-224.5 254.07-10.32 1.28-20.84 1.93-31.5 1.93s-21.18-.65-31.5-1.93c-126.52-15.51-224.5-123.35-224.5-254.07 0-141.38 114.62-256 256-256s256 114.62 256 256z" fill="#fbd307"/><path d="m484.481 213.708h-456.962c-4.586 0-8.303-3.717-8.303-8.303v-24.665c0-4.586 3.717-8.303 8.303-8.303h456.962c4.586 0 8.303 3.717 8.303 8.303v24.665c0 4.586-3.717 8.303-8.303 8.303z" fill="#2f373b"/><path d="m80.6 250.091c-10.797 0-19.549-8.752-19.549-19.549v-74.939c0-10.797 8.752-19.549 19.549-19.549 10.797 0 19.549 8.752 19.549 19.549v74.939c0 10.797-8.752 19.549-19.549 19.549z" fill="#2f373b"/><path d="m431.4 250.091c-10.797 0-19.549-8.752-19.549-19.549v-74.939c0-10.797 8.752-19.549 19.549-19.549 10.797 0 19.549 8.752 19.549 19.549v74.939c0 10.797-8.752 19.549-19.549 19.549z" fill="#2f373b"/><path d="m256 439.687c-30.373 0-61.173-.983-91.545-2.922-72.65-4.637-130.587-62.88-134.767-135.478-2.05-35.604-3.093-71.878-3.1-107.815l20-.004c.007 35.556 1.039 71.445 3.067 106.669 3.6 62.517 53.5 112.674 116.075 116.668 29.95 1.912 60.322 2.881 90.271 2.881s60.321-.969 90.271-2.881c62.574-3.994 112.475-54.151 116.075-116.668 2.048-35.579 3.08-71.83 3.067-107.744l20-.007c.013 36.299-1.03 72.938-3.1 108.901-4.18 72.598-62.117 130.841-134.767 135.478-30.374 1.939-61.174 2.922-91.547 2.922z" fill="#2f373b"/><path d="m431.87 198.485c-.04 13.97-.24 27.94-.61 41.9-.36 14.14-.89 28.27-1.59 42.4-.25 5.14-.52 10.28-.82 15.42-.53 9.27-2.46 18.17-5.57 26.48-12.22 32.65-42.75 56.32-79.15 58.64-58.75 3.75-117.51 3.75-176.26 0-36.4-2.32-66.93-25.99-79.15-58.64-3.11-8.31-5.04-17.21-5.57-26.48-.3-5.14-.57-10.28-.82-15.42-.7-14.13-1.23-28.26-1.59-42.4-.37-13.96-.57-27.93-.61-41.9-.04-14.13.08-28.26.37-42.4.28-13.97.72-27.94 1.32-41.9.38-8.75.83-17.5 1.33-26.25 2.29-39.81 30.23-72.65 67.6-82.37 5.52-1.44 11.24-2.37 17.12-2.75 8.26-.53 16.52-.98 24.78-1.35 14.13-.65 28.26-1.09 42.4-1.3 13.97-.22 27.93-.22 41.9 0 14.14.21 28.27.65 42.4 1.3 8.26.37 16.52.82 24.78 1.35 5.88.38 11.6 1.31 17.12 2.75 37.37 9.72 65.31 42.56 67.6 82.37.5 8.75.95 17.5 1.33 26.25.6 13.96 1.04 27.93 1.32 41.9.29 14.14.41 28.27.37 42.4z" fill="#a8d0d5"/><path d="m195.24 384.775c-8.97-.39-17.93-.88-26.9-1.45-36.4-2.32-66.93-25.99-79.15-58.64-3.11-8.31-5.04-17.21-5.57-26.48-.3-5.14-.57-10.28-.82-15.42-.7-14.13-1.23-28.26-1.59-42.4-.37-13.96-.57-27.93-.61-41.9-.04-14.13.08-28.26.37-42.4.28-13.97.72-27.94 1.32-41.9.38-8.75.83-17.5 1.33-26.25 2.29-39.81 30.23-72.65 67.6-82.37 5.52-1.44 11.24-2.37 17.12-2.75 8.26-.53 16.52-.98 24.78-1.35.7-.03 1.4-.06 2.1-.09-19.38 11.58-33.6 44.2-34.81 83.38-.28 9.01-.53 18.03-.74 27.04-.34 14.38-.58 28.78-.74 43.17-.16 14.57-.23 29.13-.2 43.68.02 14.4.13 28.79.34 43.17.2 14.57.49 29.13.88 43.69.14 5.29.29 10.59.46 15.88.29 9.55 1.36 18.72 3.09 27.28 5.36 26.57 17.08 47.37 31.74 56.11z" fill="#8db9c2"/><path d="m421.87 198.455c-.04 13.97-.24 27.99-.61 41.66-.35 14.01-.88 28.19-1.58 42.18-.27 5.5-.53 10.51-.81 15.33-.47 8.09-2.13 16.01-4.96 23.56-11.1 29.67-38.74 50.14-70.42 52.16-4.22.27-8.44.52-12.67.74 17.98-9.61 32.32-25.53 39.72-45.31 3-7.99 4.76-16.39 5.25-24.96.3-5.1.58-10.41.86-16.24.74-14.81 1.3-29.83 1.68-44.67.38-14.49.6-29.33.64-44.13.04-14.96-.09-29.99-.39-44.67-.29-14.68-.76-29.53-1.39-44.13-.38-8.81-.84-17.86-1.4-27.66-1.74-30.2-19.05-56.51-44.86-70.26 4.2.23 8.4.47 12.56.74 5.16.33 10.29 1.16 15.24 2.45 33.96 8.83 58.12 38.27 60.14 73.26.53 9.26.96 17.8 1.32 26.11.59 13.79 1.03 27.81 1.31 41.67.29 13.86.41 28.05.37 42.17z" fill="#c9e2e7"/><path d="m287.5 464.99v45.08c-10.32 1.28-20.84 1.93-31.5 1.93s-21.18-.65-31.5-1.93v-45.08z" fill="#2f373b"/><g fill="#688b96"><path d="m192.65 1.465v65.52c0 11.57-9.38 20.95-20.95 20.95s-20.95-9.38-20.95-20.95v-61.42c5.52-1.44 11.24-2.37 17.12-2.75 8.26-.53 16.52-.98 24.78-1.35z"/><path d="m276.95.165v66.82c0 11.57-9.38 20.95-20.95 20.95s-20.95-9.38-20.95-20.95v-66.82c13.97-.22 27.93-.22 41.9 0z"/><path d="m361.25 5.565v61.42c0 11.57-9.38 20.95-20.95 20.95s-20.95-9.38-20.95-20.95v-65.52c8.26.37 16.52.82 24.78 1.35 5.88.38 11.6 1.31 17.12 2.75z"/><path d="m164.82 303.735c0 11.57-9.38 20.95-20.95 20.95h-55.15c-3.11-8.31-5.04-17.21-5.57-26.48-.3-5.14-.57-10.28-.82-15.42h61.54c11.57 0 20.95 9.38 20.95 20.95z"/><path d="m164.82 219.435c0 11.57-9.38 20.95-20.95 20.95h-63.13c-.37-13.96-.57-27.93-.61-41.9h63.74c11.57 0 20.95 9.38 20.95 20.95z"/><path d="m164.82 135.135c0 11.57-9.38 20.95-20.95 20.95h-63.37c.28-13.97.72-27.94 1.32-41.9h62.05c11.57 0 20.95 9.38 20.95 20.95z"/><path d="m429.67 282.785c-.25 5.14-.52 10.28-.82 15.42-.53 9.27-2.46 18.17-5.57 26.48h-55.15c-11.57 0-20.95-9.38-20.95-20.95s9.38-20.95 20.95-20.95z"/><path d="m431.87 198.485c-.04 13.97-.24 27.94-.61 41.9h-63.13c-11.57 0-20.95-9.38-20.95-20.95s9.38-20.95 20.95-20.95z"/><path d="m431.5 156.085h-63.37c-11.57 0-20.95-9.38-20.95-20.95s9.38-20.95 20.95-20.95h62.05c.6 13.96 1.04 27.93 1.32 41.9z"/></g><path d="m280.789 499.201h-49.577c-10.752 0-19.469-8.716-19.469-19.469v-49.577c0-10.752 8.716-19.469 19.469-19.469h49.577c10.752 0 19.469 8.716 19.469 19.469v49.577c-.001 10.753-8.717 19.469-19.469 19.469z" fill="#2f373b"/></svg>