<svg id="Layer_1" enable-background="new 0 0 256 256" height="512" viewBox="0 0 256 256" width="512" xmlns="http://www.w3.org/2000/svg"><ellipse cx="125.494" cy="153.1" fill="#fcc24c" rx="98.9" ry="98.9" transform="matrix(.707 -.707 .707 .707 -71.502 133.579)"/><ellipse cx="125.494" cy="153.1" fill="#f4efed" rx="41.208" ry="41.208" transform="matrix(.27 -.963 .963 .27 -55.817 232.566)"/><ellipse cx="125.494" cy="153.1" fill="#7bac51" rx="16.483" ry="16.483" transform="matrix(.99 -.143 .143 .99 -20.63 19.548)"/><path d="m125.494 196.309c-23.825 0-43.208-19.383-43.208-43.208s19.383-43.208 43.208-43.208 43.208 19.383 43.208 43.208-19.383 43.208-43.208 43.208zm0-82.417c-21.62 0-39.208 17.589-39.208 39.208 0 21.62 17.589 39.208 39.208 39.208s39.208-17.589 39.208-39.208-17.589-39.208-39.208-39.208z" fill="#690589"/><path d="m125.494 171.583c-10.192 0-18.483-8.292-18.483-18.483s8.292-18.483 18.483-18.483 18.483 8.292 18.483 18.483-8.292 18.483-18.483 18.483zm0-32.966c-7.986 0-14.483 6.497-14.483 14.483s6.497 14.483 14.483 14.483 14.483-6.497 14.483-14.483-6.498-14.483-14.483-14.483z" fill="#690589"/><path d="m121.568 251.632c1.995.165 4.008.262 6.033.315 53.645-1.125 96.793-44.932 96.793-98.847 0-53.914-43.149-97.721-96.793-98.847-2.024.053-4.038.15-6.033.315 50.761 4.192 90.658 46.689 90.658 98.531 0 51.844-39.898 94.341-90.658 98.533z" fill="#dea42e"/><path d="m129.419 54.569c-1.995-.165-4.008-.262-6.033-.315-53.644 1.125-96.792 44.932-96.792 98.846s43.149 97.721 96.793 98.847c2.024-.053 4.038-.15 6.033-.315-50.761-4.192-90.658-46.689-90.658-98.531-.001-51.843 39.897-94.34 90.657-98.532z" fill="#fce06a"/><path d="m125.494 254c-55.636 0-100.9-45.264-100.9-100.9s45.264-100.9 100.9-100.9 100.9 45.264 100.9 100.9-45.264 100.9-100.9 100.9zm0-197.8c-53.431 0-96.9 43.469-96.9 96.9s43.469 96.9 96.9 96.9 96.9-43.469 96.9-96.9-43.47-96.9-96.9-96.9z" fill="#690589"/><path d="m38.667 152.305c-1.104 0-2-.896-2-2 0-4.172.422-8.345 1.254-12.402.222-1.082 1.277-1.779 2.361-1.557 1.082.222 1.779 1.279 1.557 2.361-.778 3.793-1.172 7.695-1.172 11.598 0 1.105-.895 2-2 2z" fill="#690589"/><ellipse cx="58.432" cy="54.578" fill="#f4efed" rx="50.578" ry="50.578" transform="matrix(.16 -.987 .987 .16 -4.801 103.513)"/><path d="m58.432 4c-1.345 0-2.674.068-3.993.172 26.065 2.038 46.585 23.818 46.585 50.406s-20.52 48.368-46.585 50.406c1.319.103 2.648.172 3.993.172 27.933 0 50.578-22.645 50.578-50.578 0-27.933-22.644-50.578-50.578-50.578z" fill="#d6d1cf"/><path d="m58.432 105.156c1.345 0 2.674-.068 3.993-.172-26.065-2.038-46.585-23.818-46.585-50.406s20.52-48.368 46.585-50.406c-1.319-.104-2.647-.172-3.993-.172-27.933 0-50.578 22.645-50.578 50.578s22.645 50.578 50.578 50.578z" fill="#fff"/><path d="m58.432 107.156c-28.991 0-52.578-23.586-52.578-52.578s23.587-52.578 52.578-52.578c28.992 0 52.578 23.586 52.578 52.578 0 28.991-23.586 52.578-52.578 52.578zm0-101.156c-26.786 0-48.578 21.792-48.578 48.578s21.792 48.578 48.578 48.578 48.578-21.792 48.578-48.578-21.792-48.578-48.578-48.578z" fill="#690589"/><path d="m31.6 80.298c1.384 3.86 7.188 5.311 12.965 3.24s9.338-6.878 7.954-10.739c-1.384-3.86-7.188-5.311-12.965-3.241-5.776 2.072-9.337 6.879-7.954 10.74z" fill="#ff4397"/><path d="m85.563 36.196-32.745 9.515v-10.969l32.745-9.516z" fill="#ff4397"/><path d="m64.302 70.704c1.384 3.86 7.188 5.311 12.965 3.24s9.338-6.878 7.954-10.739c-1.384-3.86-7.188-5.311-12.965-3.241-5.776 2.071-9.337 6.879-7.954 10.74z" fill="#ff4397"/><g fill="#690589"><path d="m52.817 47.711c-.428 0-.851-.138-1.201-.4-.503-.378-.799-.97-.799-1.6v-10.969c0-.89.587-1.672 1.442-1.92l32.745-9.516c.604-.175 1.255-.057 1.759.321.503.378.799.97.799 1.6v10.97c0 .89-.587 1.672-1.442 1.92l-32.745 9.515c-.183.053-.371.079-.558.079zm2-11.468v6.804l28.745-8.353v-6.804zm30.745-.047h.01z"/><path d="m52.817 76.152c-1.104 0-2-.896-2-2v-28.441c0-1.104.896-2 2-2s2 .896 2 2v28.441c0 1.105-.895 2-2 2z"/><path d="m85.562 66.613c-1.104 0-2-.896-2-2v-28.442c0-1.104.896-2 2-2s2 .896 2 2v28.441c0 1.105-.895 2.001-2 2.001z"/><path d="m72.001 76.901c-4.548 0-8.321-2.007-9.582-5.522-1.783-4.975 2.241-10.815 9.162-13.296 6.919-2.48 13.739-.527 15.522 4.448.902 2.516.345 5.324-1.567 7.906-1.735 2.343-4.433 4.257-7.595 5.391-2.029.727-4.052 1.073-5.94 1.073zm-5.816-6.872c.992 2.768 5.757 3.699 10.407 2.032 2.391-.856 4.479-2.316 5.73-4.006.632-.854 1.605-2.532 1.016-4.175-.992-2.769-5.759-3.699-10.407-2.032-4.649 1.666-7.738 5.413-6.746 8.181z"/><path d="m39.299 86.495c-4.548 0-8.321-2.007-9.582-5.522-1.783-4.976 2.242-10.816 9.162-13.296 3.163-1.133 6.461-1.369 9.29-.662 3.118.779 5.331 2.594 6.233 5.11 1.783 4.975-2.241 10.815-9.162 13.296-2.031.728-4.053 1.074-5.941 1.074zm-5.816-6.872c.992 2.768 5.756 3.699 10.407 2.032 4.649-1.667 7.738-5.413 6.746-8.181-.589-1.644-2.406-2.321-3.437-2.579-2.04-.509-4.58-.311-6.97.546-4.648 1.667-7.738 5.413-6.746 8.182z"/><path d="m214.987 240.662c-.029 0-.057 0-.086-.002-.788-.034-1.482-.527-1.773-1.26l-17.323-43.642-19.322 33.602c-.34.59-.957.967-1.637 1-.689.027-1.331-.282-1.726-.837l-15.611-21.912-11.045 16.081c-.373.543-.99.868-1.648.868h-34.212c-1.104 0-2-.896-2-2s.896-2 2-2h33.16l12.068-17.569c.37-.538.979-.862 1.631-.868.677-.008 1.267.308 1.646.839l15.461 21.702 19.833-34.49c.383-.665 1.112-1.057 1.878-.998.765.055 1.432.543 1.715 1.257l17.202 43.336 8.611-17.229c.339-.678 1.031-1.106 1.789-1.106h22.549c1.104 0 2 .896 2 2s-.896 2-2 2h-21.312l-10.057 20.122c-.342.679-1.036 1.106-1.791 1.106z"/></g></svg>